<svg width="166" height="159" viewBox="0 0 166 159" fill="none" xmlns="http://www.w3.org/2000/svg">
<g clip-path="url(#clip0_104_2)">
<path d="M93.0303 96.2805V84.9946C93.0303 80.5447 89.2507 76.9244 84.6048 76.9244C79.959 76.9244 76.1793 80.5447 76.1793 84.9946V95.1843C76.1793 107.464 71.4564 119.253 62.88 128.38L51.0552 140.965C50.0617 142.022 50.1514 143.651 51.2553 144.603C52.3589 145.554 54.059 145.469 55.0529 144.411L66.8776 131.826C76.3439 121.751 81.5573 108.738 81.5573 95.1843V84.9946C81.5573 83.385 82.9244 82.0756 84.6048 82.0756C86.2852 82.0756 87.6523 83.385 87.6523 84.9946V96.2805C87.6523 111.392 81.8079 125.871 71.1954 137.053L59.6689 149.197C58.6701 150.25 58.7511 151.879 59.85 152.836C60.3652 153.285 61.0124 153.505 61.6577 153.505C62.3891 153.505 63.1177 153.221 63.6483 152.662L75.1744 140.518C86.689 128.386 93.0303 112.676 93.0303 96.2805Z" fill="black" stroke="black" stroke-width="0.431965"/>
<path d="M104.503 84.9946C104.503 74.4851 95.5769 65.9352 84.6048 65.9352C73.6327 65.9352 64.7063 74.4851 64.7063 84.9946V95.1843C64.7063 104.745 61.0292 113.923 54.3523 121.029L45.9458 129.976C44.9523 131.033 45.0419 132.662 46.1459 133.614C47.2498 134.565 48.9496 134.479 49.9434 133.422L58.3499 124.475C65.9171 116.422 70.0846 106.019 70.0846 95.1843V84.9946C70.0846 77.3255 76.5984 71.0864 84.6052 71.0864C92.6119 71.0864 99.1257 77.3255 99.1257 84.9946V96.2805C99.1257 114.131 92.2218 131.236 79.685 144.445L69.9599 154.692C68.9606 155.744 69.0417 157.374 70.1406 158.33C70.6558 158.779 71.3029 159 71.9483 159C72.6797 159 73.4082 158.716 73.9389 158.157L83.6644 147.91C97.1025 133.751 104.503 115.415 104.503 96.2805V84.9946Z" fill="black" stroke="black" stroke-width="0.431965"/>
<path d="M115.976 84.9946C115.976 68.4256 101.903 54.946 84.6048 54.946C67.3064 54.946 53.2333 68.4256 53.2333 84.9946V95.1843C53.2333 102.025 50.602 108.593 45.8243 113.677L38.2549 121.733C37.2615 122.791 37.3511 124.419 38.455 125.371C39.5586 126.323 41.2591 126.236 42.2526 125.179L49.8219 117.124C55.4899 111.092 58.6113 103.3 58.6113 95.1843V84.9946C58.6113 71.266 70.2718 60.0972 84.6048 60.0972C98.9378 60.0972 110.598 71.266 110.598 84.9946V96.2805C110.598 116.871 102.635 136.601 88.174 151.837L85.4825 154.673C84.4836 155.725 84.5646 157.354 85.6635 158.311C86.1788 158.76 86.8263 158.981 87.4713 158.981C88.2027 158.981 88.9312 158.697 89.4618 158.138L92.153 155.302C107.515 139.116 115.976 118.155 115.976 96.2805V84.9946H115.976Z" fill="black" stroke="black" stroke-width="0.431965"/>
<path d="M41.7603 84.9946C41.7603 86.4174 42.9643 87.5702 44.4493 87.5702C45.9343 87.5702 47.1383 86.4174 47.1383 84.9946C47.1383 76.3217 50.4257 67.9438 56.3952 61.4039C62.3092 54.9247 70.426 50.6877 79.2501 49.4734C80.7201 49.2711 81.7405 47.9655 81.5293 46.5578C81.3182 45.1498 79.9539 44.1738 78.4854 44.3747C68.3892 45.7642 59.1061 50.6077 52.3463 58.0137C45.5199 65.4922 41.7603 75.0744 41.7603 84.9946Z" fill="black" stroke="black" stroke-width="0.431965"/>
<path d="M47.1383 95.1843C47.1383 93.7616 45.9343 92.6087 44.4493 92.6087C42.9642 92.6087 41.7603 93.7616 41.7603 95.1843C41.7603 99.306 40.1752 103.262 37.2969 106.326L30.5641 113.492C29.5706 114.549 29.6602 116.177 30.7641 117.129C31.2783 117.572 31.9211 117.79 32.5622 117.79C33.2979 117.79 34.0311 117.502 34.5617 116.937L41.2946 109.772C45.0627 105.761 47.1383 100.581 47.1383 95.1843Z" fill="black" stroke="black" stroke-width="0.431965"/>
<path d="M122.171 118.176C120.734 117.818 119.265 118.64 118.889 120.016C117.896 123.649 116.661 127.26 115.218 130.75C114.671 132.073 115.346 133.57 116.727 134.093C117.052 134.217 117.387 134.275 117.717 134.275C118.787 134.275 119.799 133.659 120.218 132.648C121.741 128.964 123.044 125.154 124.092 121.32C124.468 119.944 123.608 118.536 122.171 118.176Z" fill="black" stroke="black" stroke-width="0.431965"/>
<path d="M113.221 54.4762C112.116 53.5246 110.416 53.6119 109.423 54.6696C108.431 55.7273 108.521 57.3557 109.625 58.3066C117.535 65.1172 122.071 74.8444 122.071 84.9946V96.2805C122.071 100.564 121.763 104.88 121.154 109.11C120.952 110.519 121.98 111.819 123.451 112.013C123.575 112.029 123.699 112.037 123.821 112.037C125.144 112.037 126.296 111.103 126.482 109.813C127.123 105.351 127.449 100.798 127.449 96.2802V84.9946C127.449 73.3855 122.263 62.2621 113.221 54.4762Z" fill="black" stroke="black" stroke-width="0.431965"/>
<path d="M100.65 52.5682C101.023 52.7385 101.417 52.8189 101.804 52.8189C102.809 52.8189 103.773 52.2767 104.234 51.3498C104.873 50.0658 104.303 48.5287 102.962 47.9174C99.088 46.1505 94.9703 44.9585 90.7235 44.3744C89.2514 44.1735 87.8907 45.1498 87.6796 46.5575C87.4684 47.9651 88.4888 49.2708 89.9587 49.473C93.6688 49.9837 97.2656 51.0249 100.65 52.5682Z" fill="black" stroke="black" stroke-width="0.431965"/>
<path d="M84.6048 32.9676C83.5987 32.9676 82.5812 32.9944 81.5798 33.0473C80.097 33.1256 78.9611 34.3406 79.0429 35.7606C79.125 37.1809 80.392 38.2747 81.876 38.1902C82.7791 38.1425 83.697 38.1185 84.6044 38.1185C111.59 38.1185 133.544 59.1466 133.544 84.9943V96.2802C133.544 97.7029 134.748 98.8558 136.233 98.8558C137.718 98.8558 138.922 97.7029 138.922 96.2802V84.9946C138.922 56.3069 114.555 32.9676 84.6048 32.9676Z" fill="black" stroke="black" stroke-width="0.431965"/>
<path d="M55.2038 46.9421C55.7333 46.9421 56.2686 46.7924 56.7365 46.4809C61.2103 43.5011 66.1236 41.2765 71.3406 39.8674C72.77 39.4814 73.6022 38.0583 73.1992 36.6895C72.7962 35.3207 71.3101 34.5246 69.8813 34.9093C64.0875 36.4738 58.6321 38.944 53.6664 42.2511C52.447 43.0632 52.1459 44.6683 52.9938 45.836C53.5162 46.5564 54.353 46.9421 55.2038 46.9421Z" fill="black" stroke="black" stroke-width="0.431965"/>
<path d="M35.6653 95.1843V84.9946C35.6653 73.0129 40.4025 61.602 49.0044 52.8632C50.023 51.8282 49.9732 50.1983 48.8926 49.2223C47.812 48.2464 46.11 48.2948 45.0914 49.3295C35.5448 59.0278 30.2873 71.6942 30.2873 84.9946V95.1843C30.2873 96.5865 29.7481 97.9323 28.7693 98.9739L25.4536 102.502C24.4601 103.56 24.5497 105.188 25.6536 106.14C26.1674 106.583 26.8106 106.801 27.4517 106.801C28.1874 106.801 28.9202 106.514 29.4512 105.949L32.7669 102.42C34.6359 100.431 35.6653 97.8609 35.6653 95.1843Z" fill="black" stroke="black" stroke-width="0.431965"/>
<path d="M146.98 64.9407C144.031 56.5456 139.344 48.9614 133.049 42.3984C132.044 41.351 130.343 41.2816 129.25 42.2442C128.156 43.2068 128.084 44.8359 129.089 45.8837C134.871 51.912 139.176 58.8764 141.883 66.5832C142.261 67.6591 143.309 68.3381 144.431 68.3381C144.716 68.3381 145.005 68.2944 145.289 68.2028C146.697 67.7491 147.454 66.2886 146.98 64.9407Z" fill="black" stroke="black" stroke-width="0.431965"/>
<path d="M105.855 25.3514C104.451 24.8909 102.921 25.6083 102.441 26.9545C101.96 28.3003 102.709 29.7646 104.114 30.2248C110.044 32.1681 115.611 34.9834 120.66 38.5934C121.143 38.9385 121.707 39.1047 122.267 39.1047C123.086 39.1047 123.896 38.7472 124.424 38.0693C125.312 36.9296 125.067 35.3155 123.877 34.4649C118.378 30.5349 112.315 27.4682 105.855 25.3514Z" fill="black" stroke="black" stroke-width="0.431965"/>
<path d="M42.8237 43.2384C54.135 32.8505 68.9732 27.1296 84.6048 27.1296C87.5075 27.1296 90.4263 27.3298 93.2798 27.724C94.7509 27.9294 96.1133 26.9507 96.3255 25.5427C96.5378 24.1347 95.5185 22.829 94.0485 22.6257C90.9408 22.1965 87.7635 21.9784 84.6048 21.9784C67.5792 21.9784 51.4191 28.2082 39.1018 39.5203C26.8228 50.7972 19.6418 65.9304 18.8817 82.1323C18.815 83.5533 19.9637 84.7573 21.447 84.8208C21.4882 84.8229 21.5291 84.8236 21.57 84.8236C22.9994 84.8236 24.1894 83.7453 24.2543 82.3637C24.9516 67.4898 31.5465 53.595 42.8237 43.2384Z" fill="black" stroke="black" stroke-width="0.431965"/>
<path d="M84.6048 10.9892C78.5915 10.9892 72.5994 11.6568 66.7951 12.9734C65.3499 13.3011 64.456 14.6891 64.7981 16.0731C65.1405 17.457 66.5897 18.3135 68.0345 17.9855C73.4333 16.7616 79.0081 16.1404 84.6048 16.1404C104.323 16.1404 122.728 23.6649 136.43 37.3272C136.959 37.8537 137.663 38.1188 138.37 38.1188C139.04 38.1188 139.711 37.8805 140.233 37.4007C141.304 36.4151 141.338 34.7846 140.309 33.7592C133.17 26.6406 124.783 21.0405 115.383 17.1157C105.647 13.0504 95.2915 10.9892 84.6048 10.9892Z" fill="black" stroke="black" stroke-width="0.431965"/>
<path d="M24.2034 43.0653C24.6953 43.4341 25.2793 43.613 25.8594 43.613C26.6579 43.613 27.4481 43.2741 27.9784 42.6254C35.642 33.2495 45.731 25.8954 57.1546 21.3572C58.5263 20.8122 59.1774 19.3053 58.6084 17.9914C58.0394 16.6775 56.4655 16.0532 55.0944 16.5988C42.818 21.4756 31.9771 29.3772 23.7441 39.4492C22.8284 40.5697 23.0342 42.1886 24.2034 43.0653Z" fill="black" stroke="black" stroke-width="0.431965"/>
<path d="M47.32 13.2986C47.7123 13.2986 48.1106 13.2162 48.4871 13.0418C59.8088 7.80577 71.9605 5.15119 84.6048 5.15119C91.1939 5.15119 97.7564 5.89365 104.109 7.35796C105.552 7.68969 107.005 6.8394 107.353 5.45648C107.7 4.07356 106.811 2.6824 105.367 2.34963C98.6029 0.790536 91.6173 0 84.6048 0C71.1441 0 58.2058 2.82697 46.1491 8.40296C44.8117 9.02145 44.251 10.5613 44.8967 11.8422C45.3603 12.7622 46.3204 13.2986 47.32 13.2986Z" fill="black" stroke="black" stroke-width="0.431965"/>
<path d="M115.348 10.7773C118.12 11.8347 120.864 13.0504 123.503 14.39C123.904 14.594 124.335 14.6905 124.76 14.6905C125.724 14.6905 126.656 14.1929 127.138 13.3203C127.833 12.0634 127.333 10.5046 126.021 9.83843C123.211 8.41224 120.29 7.11791 117.338 5.99186C115.958 5.46541 114.394 6.11034 113.844 7.43145C113.295 8.7529 113.969 10.2512 115.348 10.7773Z" fill="black" stroke="black" stroke-width="0.431965"/>
</g>
<defs>
<clipPath id="clip0_104_2">
<rect width="166" height="159" fill="white"/>
</clipPath>
</defs>
</svg>
