<svg width="32" height="32" viewBox="0 0 32 32" fill="none" xmlns="http://www.w3.org/2000/svg">
<path d="M14.3333 6H19.3333L24.8166 0.5C24.9716 0.343786 25.1559 0.219795 25.359 0.135181C25.5621 0.0505666 25.7799 0.00700283 26 0.00700283C26.22 0.00700283 26.4378 0.0505666 26.6409 0.135181C26.844 0.219795 27.0284 0.343786 27.1833 0.5L31.4833 4.81667C31.7937 5.12894 31.968 5.55136 31.968 5.99167C31.968 6.43198 31.7937 6.8544 31.4833 7.16667L27.6666 11H14.3333V14.3333C14.3333 14.7754 14.1577 15.1993 13.8451 15.5118C13.5326 15.8244 13.1087 16 12.6666 16C12.2246 16 11.8007 15.8244 11.4881 15.5118C11.1756 15.1993 11 14.7754 11 14.3333V9.33333C11 8.44928 11.3512 7.60143 11.9763 6.97631C12.6014 6.35119 13.4492 6 14.3333 6ZM4.3333 14.3333V21L0.516637 24.8167C0.206219 25.1289 0.0319824 25.5514 0.0319824 25.9917C0.0319824 26.432 0.206219 26.8544 0.516637 27.1667L4.81664 31.4833C4.97157 31.6395 5.15591 31.7635 5.35901 31.8482C5.56211 31.9328 5.77995 31.9763 5.99997 31.9763C6.21999 31.9763 6.43783 31.9328 6.64093 31.8482C6.84403 31.7635 7.02836 31.6395 7.1833 31.4833L14.3333 24.3333H21C21.442 24.3333 21.8659 24.1577 22.1785 23.8452C22.491 23.5326 22.6666 23.1087 22.6666 22.6667V21H24.3333C24.7753 21 25.1993 20.8244 25.5118 20.5118C25.8244 20.1993 26 19.7754 26 19.3333V17.6667H27.6666C28.1087 17.6667 28.5326 17.4911 28.8451 17.1785C29.1577 16.8659 29.3333 16.442 29.3333 16V14.3333H17.6666V16C17.6666 16.8841 17.3154 17.7319 16.6903 18.357C16.0652 18.9821 15.2174 19.3333 14.3333 19.3333H11C10.1159 19.3333 9.26807 18.9821 8.64295 18.357C8.01783 17.7319 7.66664 16.8841 7.66664 16V11L4.3333 14.3333Z" fill="#292E3D"/>
</svg>
