<svg width="19" height="30" viewBox="0 0 19 30" fill="none" xmlns="http://www.w3.org/2000/svg">
<path d="M0.100098 26.3L0.516764 30L3.21676 27.4333L7.83343 14.7667C6.7001 14.4833 5.7001 13.9167 4.88343 13.1333L0.100098 26.3ZM14.1168 13.1333C13.3001 13.9167 12.2834 14.4833 11.1668 14.7667L15.7834 27.4333L18.4834 30L18.9168 26.3L14.1168 13.1333V13.1333ZM14.4001 9.33333C14.9001 6.73333 13.4001 4.43333 11.1668 3.63333V1.66667C11.1668 0.75 10.4168 0 9.5001 0C8.58343 0 7.83343 0.75 7.83343 1.66667V3.63333C5.9001 4.33333 4.5001 6.16667 4.5001 8.33333C4.5001 11.4 7.26677 13.8333 10.4334 13.25C12.4001 12.8833 14.0168 11.3 14.4001 9.33333V9.33333ZM9.5001 10C8.58343 10 7.83343 9.25 7.83343 8.33333C7.83343 7.41667 8.58343 6.66667 9.5001 6.66667C10.4168 6.66667 11.1668 7.41667 11.1668 8.33333C11.1668 9.25 10.4168 10 9.5001 10Z" fill="#292E3D"/>
</svg>
