<svg width="25" height="24" viewBox="0 0 25 24" fill="none" xmlns="http://www.w3.org/2000/svg">
<path d="M12.5 18C8.01049 18 2.5 14.0928 2.5 12C2.5 9.90724 8.01049 6 12.5 6C16.9895 6 22.5 9.90724 22.5 12C22.5 14.0928 16.9895 18 12.5 18ZM4.42582 12.4623C4.9058 12.994 5.56532 13.5761 6.31317 14.1064C8.21956 15.4581 10.3751 16.2774 12.5 16.2774C14.6249 16.2774 16.7804 15.4581 18.6868 14.1064C19.4347 13.5761 20.0942 12.994 20.5742 12.4623C20.7291 12.2908 20.8571 12.1329 20.9518 12C20.8571 11.8671 20.7291 11.7092 20.5742 11.5377C20.0942 11.006 19.4347 10.4239 18.6868 9.89359C16.7804 8.54186 14.6249 7.72256 12.5 7.72256C10.3751 7.72256 8.21956 8.54186 6.31317 9.89359C5.56532 10.4239 4.9058 11.006 4.42582 11.5377C4.27093 11.7092 4.14286 11.8671 4.04819 12C4.14286 12.1329 4.27093 12.2908 4.42582 12.4623ZM12.5 15.5C10.567 15.5 9 13.933 9 12C9 10.067 10.567 8.5 12.5 8.5C14.433 8.5 16 10.067 16 12C16 13.933 14.433 15.5 12.5 15.5ZM12.5 13.7C13.4389 13.7 14.2 12.9389 14.2 12C14.2 11.0611 13.4389 10.3 12.5 10.3C11.5611 10.3 10.8 11.0611 10.8 12C10.8 12.9389 11.5611 13.7 12.5 13.7Z" fill="#1C2E45" fill-opacity="0.6"/>
</svg>
