<svg width="21" height="20" viewBox="0 0 21 20" fill="none" xmlns="http://www.w3.org/2000/svg">
<path d="M11.9859 12.0052V10.6566C11.9859 10.1248 11.426 9.69221 10.7377 9.69221C10.0493 9.69221 9.48936 10.1248 9.48936 10.6566V11.8742C9.48936 13.3416 8.78963 14.7504 7.51897 15.841L5.76706 17.3449C5.61987 17.4712 5.63315 17.6658 5.7967 17.7796C5.9602 17.8933 6.21209 17.883 6.35933 17.7567L8.11125 16.2528C9.51374 15.0489 10.2861 13.4939 10.2861 11.8742V10.6566C10.2861 10.4642 10.4887 10.3078 10.7377 10.3078C10.9866 10.3078 11.1892 10.4642 11.1892 10.6566V12.0052C11.1892 13.8109 10.3233 15.5412 8.75096 16.8774L7.04324 18.3286C6.89525 18.4543 6.90725 18.6491 7.07006 18.7634C7.1464 18.817 7.24228 18.8434 7.33789 18.8434C7.44625 18.8434 7.55419 18.8095 7.6328 18.7427L9.34047 17.2914C11.0464 15.8417 11.9859 13.9644 11.9859 12.0052Z" fill="#0469D8" stroke="#046CDB" stroke-width="0.431965"/>
<path d="M13.6858 10.6566C13.6858 9.40073 12.3633 8.37904 10.7377 8.37904C9.1121 8.37904 7.7896 9.40073 7.7896 10.6566V11.8742C7.7896 13.0166 7.24481 14.1134 6.25558 14.9626L5.0101 16.0317C4.86291 16.158 4.87619 16.3526 5.03974 16.4664C5.20329 16.5801 5.45513 16.5698 5.60238 16.4435L6.84785 15.3744C7.96898 14.412 8.58643 13.169 8.58643 11.8742V10.6566C8.58643 9.74015 9.5515 8.99459 10.7377 8.99459C11.924 8.99459 12.8891 9.74015 12.8891 10.6566V12.0052C12.8891 14.1383 11.8662 16.1823 10.0088 17.7607L8.56795 18.9852C8.41991 19.1109 8.43191 19.3056 8.59472 19.42C8.67105 19.4736 8.76693 19.5 8.86254 19.5C8.97091 19.5 9.07884 19.4661 9.15746 19.3992L10.5984 18.1748C12.5893 16.4828 13.6858 14.2918 13.6858 12.0052V10.6566Z" fill="#0469D8" stroke="#046CDB" stroke-width="0.431965"/>
<path d="M15.3856 10.6566C15.3856 8.67665 13.3006 7.06587 10.7377 7.06587C8.17486 7.06587 6.08984 8.67665 6.08984 10.6566V11.8742C6.08984 12.6917 5.7 13.4765 4.99214 14.0841L3.8707 15.0467C3.7235 15.1731 3.73678 15.3677 3.90034 15.4814C4.06384 15.5951 4.31578 15.5848 4.46297 15.4585L5.58442 14.4959C6.42417 13.7751 6.88662 12.844 6.88662 11.8742V10.6566C6.88662 9.01606 8.61421 7.68142 10.7377 7.68142C12.8613 7.68142 14.5889 9.01606 14.5889 10.6566V12.0052C14.5889 14.4657 13.409 16.8234 11.2665 18.644L10.8678 18.9829C10.7198 19.1087 10.7318 19.3033 10.8946 19.4177C10.9709 19.4713 11.0669 19.4977 11.1624 19.4977C11.2708 19.4977 11.3787 19.4638 11.4573 19.397L11.856 19.0581C14.1321 17.1239 15.3856 14.6192 15.3856 12.0052V10.6566H15.3856Z" fill="#0469D8" stroke="#046CDB" stroke-width="0.431965"/>
<path d="M4.39001 10.6566C4.39001 10.8266 4.56839 10.9644 4.78841 10.9644C5.00842 10.9644 5.1868 10.8266 5.1868 10.6566C5.1868 9.62019 5.67384 8.61906 6.55827 7.83756C7.43447 7.06332 8.63702 6.55701 9.94438 6.4119C10.1622 6.38773 10.3133 6.23171 10.2821 6.0635C10.2508 5.89525 10.0487 5.77862 9.83108 5.80263C8.33526 5.96867 6.9599 6.54745 5.9584 7.43245C4.94702 8.3261 4.39001 9.47115 4.39001 10.6566Z" fill="#0469D8" stroke="#046CDB" stroke-width="0.431965"/>
<path d="M5.18675 11.8742C5.18675 11.7042 5.00837 11.5665 4.78836 11.5665C4.56834 11.5665 4.38997 11.7042 4.38997 11.8742C4.38997 12.3668 4.15513 12.8395 3.72869 13.2056L2.73117 14.0619C2.58398 14.1882 2.59726 14.3828 2.76081 14.4966C2.83698 14.5495 2.93223 14.5756 3.0272 14.5756C3.1362 14.5756 3.24483 14.5412 3.32345 14.4737L4.32096 13.6174C4.87924 13.1381 5.18675 12.5191 5.18675 11.8742Z" fill="#0469D8" stroke="#046CDB" stroke-width="0.431965"/>
<path d="M16.3035 14.6217C16.0905 14.5788 15.873 14.6771 15.8172 14.8415C15.6701 15.2756 15.4872 15.7072 15.2732 16.1242C15.1922 16.2823 15.2923 16.4612 15.4969 16.5237C15.5451 16.5385 15.5947 16.5454 15.6435 16.5454C15.8021 16.5454 15.952 16.4718 16.014 16.351C16.2397 15.9109 16.4328 15.4555 16.588 14.9973C16.6437 14.8329 16.5163 14.6647 16.3035 14.6217Z" fill="#0469D8" stroke="#046CDB" stroke-width="0.431965"/>
<path d="M14.9774 7.00974C14.8137 6.89603 14.5618 6.90645 14.4147 7.03285C14.2677 7.15924 14.281 7.35384 14.4446 7.46747C15.6165 8.28131 16.2886 9.44367 16.2886 10.6566V12.0052C16.2886 12.5171 16.2429 13.0329 16.1527 13.5383C16.1227 13.7067 16.2751 13.862 16.493 13.8852C16.5114 13.8872 16.5298 13.8881 16.5479 13.8881C16.7438 13.8881 16.9146 13.7764 16.942 13.6223C17.0371 13.0891 17.0853 12.545 17.0853 12.0052V10.6566C17.0854 9.26935 16.317 7.94013 14.9774 7.00974Z" fill="#0469D8" stroke="#046CDB" stroke-width="0.431965"/>
<path d="M13.115 6.78174C13.1703 6.80209 13.2286 6.81169 13.286 6.81169C13.4349 6.81169 13.5777 6.7469 13.646 6.63614C13.7406 6.4827 13.6562 6.29902 13.4576 6.22598C12.8835 6.01484 12.2735 5.8724 11.6443 5.8026C11.4262 5.77859 11.2246 5.89526 11.1933 6.06347C11.162 6.23168 11.3132 6.3877 11.531 6.41187C12.0807 6.47289 12.6135 6.59732 13.115 6.78174Z" fill="#0469D8" stroke="#046CDB" stroke-width="0.431965"/>
<path d="M10.7377 4.43951C10.5887 4.43951 10.4379 4.44272 10.2896 4.44903C10.0699 4.45839 9.90159 4.60358 9.9137 4.77327C9.92586 4.94299 10.1136 5.0737 10.3334 5.0636C10.4673 5.0579 10.6032 5.05502 10.7377 5.05502C14.7357 5.05502 17.9884 7.56783 17.9884 10.6565V12.0052C17.9884 12.1752 18.1668 12.3129 18.3868 12.3129C18.6068 12.3129 18.7852 12.1752 18.7852 12.0052V10.6566C18.7852 7.22849 15.1751 4.43951 10.7377 4.43951Z" fill="#0469D8" stroke="#046CDB" stroke-width="0.431965"/>
<path d="M6.3818 6.10944C6.46026 6.10944 6.53957 6.09155 6.60889 6.05433C7.2717 5.69825 7.99964 5.43242 8.77257 5.26404C8.98436 5.21792 9.10765 5.04786 9.04794 4.88429C8.98824 4.72072 8.76806 4.62559 8.55638 4.67155C7.69798 4.85852 6.88973 5.15369 6.15403 5.54888C5.97337 5.64593 5.92875 5.83774 6.05438 5.97726C6.13177 6.06335 6.25575 6.10944 6.3818 6.10944Z" fill="#0469D8" stroke="#046CDB" stroke-width="0.431965"/>
<path d="M3.48702 11.8742V10.6566C3.48702 9.22482 4.18888 7.86125 5.46331 6.81699C5.61422 6.6933 5.60683 6.49854 5.44673 6.38191C5.28663 6.26529 5.03448 6.27107 4.88357 6.39472C3.46917 7.55364 2.69024 9.06723 2.69024 10.6566V11.8742C2.69024 12.0418 2.61035 12.2026 2.46533 12.3271L1.97409 12.7487C1.8269 12.8751 1.84018 13.0697 2.00373 13.1834C2.07985 13.2364 2.17515 13.2624 2.27012 13.2624C2.37912 13.2624 2.4877 13.2281 2.56637 13.1606L3.05761 12.7389C3.33452 12.5011 3.48702 12.1941 3.48702 11.8742Z" fill="#0469D8" stroke="#046CDB" stroke-width="0.431965"/>
<path d="M19.9791 8.26021C19.5422 7.25703 18.8477 6.35073 17.9151 5.56648C17.7663 5.44132 17.5143 5.43303 17.3522 5.54806C17.1902 5.66308 17.1796 5.85776 17.3284 5.98296C18.185 6.70332 18.8228 7.53555 19.224 8.45649C19.28 8.58506 19.4352 8.66619 19.6015 8.66619C19.6436 8.66619 19.6865 8.66098 19.7286 8.65002C19.9371 8.59581 20.0493 8.42128 19.9791 8.26021Z" fill="#0469D8" stroke="#046CDB" stroke-width="0.431965"/>
<path d="M13.8861 3.5294C13.678 3.47437 13.4514 3.5601 13.3802 3.72096C13.309 3.88179 13.42 4.05677 13.6282 4.11176C14.5066 4.34398 15.3314 4.6804 16.0796 5.11178C16.1511 5.15302 16.2347 5.17288 16.3176 5.17288C16.439 5.17288 16.5589 5.13016 16.6372 5.04916C16.7688 4.91296 16.7325 4.72008 16.5562 4.61844C15.7415 4.14881 14.8432 3.78235 13.8861 3.5294Z" fill="#0469D8" stroke="#046CDB" stroke-width="0.431965"/>
<path d="M4.54758 5.66684C6.22342 4.42552 8.4218 3.74189 10.7377 3.74189C11.1678 3.74189 11.6002 3.76582 12.023 3.81293C12.2409 3.83747 12.4428 3.72051 12.4742 3.55226C12.5057 3.38401 12.3547 3.22799 12.1369 3.2037C11.6764 3.1524 11.2057 3.12634 10.7377 3.12634C8.21527 3.12634 5.82105 3.87079 3.99615 5.22254C2.17694 6.5701 1.11302 8.37847 1.00041 10.3145C0.990529 10.4843 1.16072 10.6282 1.38047 10.6358C1.38658 10.6361 1.39264 10.6361 1.39869 10.6361C1.61048 10.6361 1.78678 10.5073 1.79639 10.3422C1.89971 8.56482 2.87678 6.90443 4.54758 5.66684Z" fill="#0469D8" stroke="#046CDB" stroke-width="0.431965"/>
<path d="M10.7378 1.81317C9.84687 1.81317 8.9591 1.89295 8.09916 2.05028C7.88503 2.08943 7.75261 2.2553 7.80328 2.42068C7.85401 2.58606 8.06872 2.6884 8.28279 2.64921C9.08265 2.50296 9.9086 2.42872 10.7378 2.42872C13.6591 2.42872 16.386 3.32788 18.4161 4.96048C18.4943 5.02339 18.5988 5.05507 18.7035 5.05507C18.8028 5.05507 18.9022 5.02659 18.9794 4.96926C19.1381 4.85149 19.1432 4.65665 18.9907 4.53411C17.933 3.68346 16.6905 3.01428 15.2978 2.54527C13.8553 2.05947 12.3211 1.81317 10.7378 1.81317Z" fill="#0469D8" stroke="#046CDB" stroke-width="0.431965"/>
<path d="M1.7889 5.64617C1.86178 5.69024 1.94831 5.71162 2.03425 5.71162C2.15255 5.71162 2.26962 5.67112 2.34819 5.5936C3.4836 4.47322 4.97836 3.59442 6.67084 3.05212C6.87407 2.98699 6.97053 2.80692 6.88623 2.64991C6.80193 2.49291 6.56874 2.4183 6.36562 2.48351C4.54677 3.06627 2.94062 4.01049 1.72085 5.21405C1.58519 5.34796 1.61568 5.5414 1.7889 5.64617Z" fill="#0469D8" stroke="#046CDB" stroke-width="0.431965"/>
<path d="M5.21369 2.08915C5.2718 2.08915 5.33082 2.0793 5.38659 2.05845C7.06398 1.43276 8.86433 1.11555 10.7377 1.11555C11.7139 1.11555 12.6862 1.20427 13.6274 1.37925C13.8412 1.41889 14.0564 1.31729 14.1079 1.15203C14.1594 0.986778 14.0277 0.820538 13.8137 0.780773C12.8116 0.594467 11.7766 0.5 10.7377 0.5C8.74338 0.5 6.82648 0.837814 5.0402 1.50413C4.84207 1.57803 4.75899 1.76204 4.85466 1.91511C4.92334 2.02505 5.0656 2.08915 5.21369 2.08915Z" fill="#0469D8" stroke="#046CDB" stroke-width="0.431965"/>
<path d="M15.2926 1.78785C15.7034 1.9142 16.1099 2.05947 16.5009 2.21956C16.5603 2.24393 16.6242 2.25547 16.6871 2.25547C16.8298 2.25547 16.9679 2.196 17.0394 2.09173C17.1424 1.94153 17.0683 1.75527 16.8739 1.67566C16.4576 1.50523 16.0248 1.35057 15.5874 1.21601C15.3829 1.1531 15.1513 1.23016 15.0699 1.38803C14.9885 1.54594 15.0882 1.72498 15.2926 1.78785Z" fill="#0469D8" stroke="#046CDB" stroke-width="0.431965"/>
</svg>
