<svg width="41" height="40" viewBox="0 0 41 40" fill="none" xmlns="http://www.w3.org/2000/svg">
<g clip-path="url(#clip0_108_242)">
<rect x="0.5" y="16.6667" width="23.3333" height="23.3333" fill="#7595FD"/>
<path d="M32.1516 3.33333H15.5166C13.6649 3.33333 12.1666 4.83167 12.1666 6.68333V16.0783L4.32989 23.815C4.09508 24.0472 3.93456 24.344 3.86869 24.6676C3.80282 24.9912 3.83458 25.3271 3.95994 25.6326C4.0853 25.9382 4.2986 26.1996 4.57277 26.3837C4.84695 26.5678 5.16964 26.6663 5.49989 26.6667V35C5.49989 35.442 5.67548 35.866 5.98804 36.1785C6.3006 36.4911 6.72453 36.6667 7.16655 36.6667H33.8332C34.2752 36.6667 34.6992 36.4911 35.0117 36.1785C35.3243 35.866 35.4999 35.442 35.4999 35V6.68167C35.4999 4.83167 34.0032 3.33333 32.1516 3.33333ZM18.7032 25.185V33.3333H8.83322V24.0533L13.8116 19.1383L18.7032 24.1433V25.185V25.185ZM22.1666 15H18.8332V11.6667H22.1666V15ZM28.8332 28.3333H25.4999V25H28.8332V28.3333ZM28.8332 21.6667H25.4999V18.3333H28.8332V21.6667ZM28.8332 15H25.4999V11.6667H28.8332V15Z" fill="#292E3D"/>
<path d="M12.1667 25H15.5001V28.3333H12.1667V25Z" fill="#14171F"/>
</g>
<defs>
<clipPath id="clip0_108_242">
<rect width="40" height="40" fill="white" transform="translate(0.5)"/>
</clipPath>
</defs>
</svg>
