<svg width="40" height="40" viewBox="0 0 40 40" fill="none" xmlns="http://www.w3.org/2000/svg">
<rect y="16.6667" width="23.3333" height="23.3333" fill="#7595FD"/>
<path d="M35.0001 23.3333C35.0001 22.4167 34.2501 21.6667 33.3334 21.6667H30.0001V25H33.3334C34.2501 25 35.0001 24.25 35.0001 23.3333ZM33.3334 28.3333H30.0001V31.6667H33.3334C34.2501 31.6667 35.0001 30.9167 35.0001 30C35.0001 29.0833 34.2501 28.3333 33.3334 28.3333ZM20.0001 23.3333H16.6667V30H20.0001C20.0001 31.8333 21.5001 33.3333 23.3334 33.3333H28.3334V20H23.3334C21.5001 20 20.0001 21.5 20.0001 23.3333Z" fill="white"/>
<path d="M8.33333 21.6667C8.33333 19.8333 9.83333 18.3333 11.6667 18.3333H14.1667C17.3833 18.3333 20 15.7167 20 12.5C20 9.28334 17.3833 6.66667 14.1667 6.66667H8.33333C7.41667 6.66667 6.66667 7.41667 6.66667 8.33334C6.66667 9.25001 7.41667 10 8.33333 10H14.1667C15.55 10 16.6667 11.1167 16.6667 12.5C16.6667 13.8833 15.55 15 14.1667 15H11.6667C7.98333 15 5 17.9833 5 21.6667C5 25.35 7.98333 28.3333 11.6667 28.3333H15V25H11.6667C9.83333 25 8.33333 23.5 8.33333 21.6667Z" fill="white"/>
</svg>
