<svg width="40" height="40" viewBox="0 0 40 40" fill="none" xmlns="http://www.w3.org/2000/svg">
<path d="M35.0001 13.3333C35.8841 13.3333 36.732 13.6845 37.3571 14.3096C37.9822 14.9348 38.3334 15.7826 38.3334 16.6667V23.3333C38.3334 24.2174 37.9822 25.0652 37.3571 25.6904C36.732 26.3155 35.8841 26.6667 35.0001 26.6667H33.2301C32.8238 29.8888 31.2555 32.852 28.8197 35C26.3838 37.148 23.2478 38.3333 20.0001 38.3333V35C22.6522 35 25.1958 33.9464 27.0711 32.0711C28.9465 30.1957 30.0001 27.6522 30.0001 25V15C30.0001 12.3478 28.9465 9.80429 27.0711 7.92893C25.1958 6.05357 22.6522 5 20.0001 5C17.3479 5 14.8044 6.05357 12.929 7.92893C11.0536 9.80429 10.0001 12.3478 10.0001 15V26.6667H5.00008C4.11603 26.6667 3.26818 26.3155 2.64306 25.6904C2.01794 25.0652 1.66675 24.2174 1.66675 23.3333V16.6667C1.66675 15.7826 2.01794 14.9348 2.64306 14.3096C3.26818 13.6845 4.11603 13.3333 5.00008 13.3333H6.77008C7.1768 10.1115 8.74521 7.14878 11.181 5.00112C13.6169 2.85346 16.7527 1.66846 20.0001 1.66846C23.2475 1.66846 26.3833 2.85346 28.8191 5.00112C31.2549 7.14878 32.8234 10.1115 33.2301 13.3333H35.0001ZM12.9334 26.3083L14.7001 23.4817C16.2885 24.4767 18.1257 25.003 20.0001 25C21.8745 25.003 23.7116 24.4767 25.3001 23.4817L27.0667 26.3083C24.9488 27.6352 22.4993 28.3372 20.0001 28.3333C17.5008 28.3372 15.0513 27.6352 12.9334 26.3083Z" fill="#F9995D"/>
</svg>
