<svg width="35" height="28" viewBox="0 0 35 28" fill="none" xmlns="http://www.w3.org/2000/svg">
<path d="M27.4999 20.6667H24.1666V19H10.8333V20.6667H7.49992V19H0.833252V27.3333H34.1666V19H27.4999V20.6667ZM30.8333 7.33334H25.8333V4.00001C25.8333 2.16667 24.3333 0.666672 22.4999 0.666672H12.4999C10.6666 0.666672 9.16659 2.16667 9.16659 4.00001V7.33334H4.16659C2.33325 7.33334 0.833252 8.83334 0.833252 10.6667V17.3333H7.49992V14H10.8333V17.3333H24.1666V14H27.4999V17.3333H34.1666V10.6667C34.1666 8.83334 32.6666 7.33334 30.8333 7.33334ZM22.4999 7.33334H12.4999V4.00001H22.4999V7.33334Z" fill="white"/>
</svg>
